<svg xmlns="http://www.w3.org/2000/svg" viewBox="0 0 100 100"><defs><style>.cls-1{fill:#00caff;}.cls-2{fill:#007adb;}.cls-3{fill:#ee3f36;}</style></defs><title>EDteam-isotipo</title>
    <path class="cls-1" d="M75,93.29A50,50,0,0,0,87.74,82.8a15,15,0,0,1-20.21-15A25,25,0,0,1,28.35,62.5,12.5,12.5,0,1,0,6.7,75,50,50,0,0,0,75,93.29Z"/>
    <path class="cls-2" d="M93.31,25A49.86,49.86,0,0,0,59.57,1a15,15,0,0,1-2.89,25,25,25,0,0,1,15,36.58h0A12.5,12.5,0,0,0,93.31,75c.15-.25.26-.5.39-.75A49.94,49.94,0,0,0,93.31,25Z"/>
    <path class="cls-3" d="M62.5,12.5A12.5,12.5,0,0,0,50,0c-.25,0-.49,0-.74,0A49.95,49.95,0,0,0,2.73,66.28a15,15,0,0,1,23.07-10A25,25,0,0,1,50,25h0A12.5,12.5,0,0,0,62.5,12.5Z"/>
</svg>